<svg xmlns="http://www.w3.org/2000/svg" width="128" height="128" viewBox="0 0 128 128">
  <rect width="128" height="128" fill="#8f3c30"/>
  <g fill="#b45141">
    <rect x="2" y="4" width="38" height="22"/><rect x="44" y="4" width="38" height="22"/><rect x="86" y="4" width="40" height="22"/>
    <rect x="22" y="32" width="38" height="22"/><rect x="64" y="32" width="40" height="22"/>
    <rect x="2" y="60" width="38" height="22"/><rect x="44" y="60" width="38" height="22"/><rect x="86" y="60" width="40" height="22"/>
    <rect x="22" y="88" width="38" height="22"/><rect x="64" y="88" width="40" height="22"/>
  </g>
  <g stroke="#d7b39d" stroke-width="4" opacity="0.55">
    <path d="M0 28h128"/><path d="M0 56h128"/><path d="M0 84h128"/><path d="M0 112h128"/>
    <path d="M20 28v28"/><path d="M62 28v28"/><path d="M20 84v28"/><path d="M62 84v28"/>
    <path d="M42 0v28"/><path d="M84 0v28"/><path d="M42 56v28"/><path d="M84 56v28"/>
  </g>
</svg>
