<svg xmlns="http://www.w3.org/2000/svg" width="128" height="128" viewBox="0 0 128 128">
  <rect width="128" height="128" fill="#734622"/>
  <g fill="#8f5a2e">
    <rect x="0" y="0" width="24" height="24"/><rect x="40" y="14" width="20" height="18"/>
    <rect x="78" y="0" width="34" height="22"/><rect x="18" y="44" width="26" height="20"/>
    <rect x="60" y="40" width="22" height="24"/><rect x="94" y="32" width="30" height="18"/>
    <rect x="4" y="78" width="30" height="22"/><rect x="44" y="84" width="28" height="18"/>
    <rect x="80" y="76" width="40" height="30"/>
  </g>
  <g fill="#5e3417" opacity="0.7">
    <circle cx="26" cy="20" r="5"/><circle cx="66" cy="26" r="4"/><circle cx="101" cy="14" r="5"/>
    <circle cx="20" cy="60" r="6"/><circle cx="58" cy="58" r="4"/><circle cx="111" cy="56" r="7"/>
    <circle cx="32" cy="102" r="6"/><circle cx="70" cy="108" r="5"/><circle cx="106" cy="100" r="8"/>
  </g>
</svg>
