<svg xmlns="http://www.w3.org/2000/svg" width="128" height="128" viewBox="0 0 128 128">
  <defs>
    <linearGradient id="g" x1="0" y1="0" x2="0" y2="1">
      <stop offset="0%" stop-color="#7ea84e"/>
      <stop offset="45%" stop-color="#5f8538"/>
      <stop offset="100%" stop-color="#3e6127"/>
    </linearGradient>
  </defs>
  <rect width="128" height="128" fill="url(#g)"/>
  <path d="M0 92c20-14 42-7 62-12 18-5 28-17 66-10v58H0z" fill="#566c34" opacity="0.5"/>
  <g stroke="#8eb45c" stroke-width="2" opacity="0.34">
    <path d="M10 126 18 80"/><path d="M24 126 29 66"/><path d="M38 126 49 74"/><path d="M52 126 61 58"/>
    <path d="M74 126 78 71"/><path d="M88 126 95 61"/><path d="M102 126 111 76"/><path d="M118 126 122 68"/>
  </g>
  <g fill="#314f21" opacity="0.24">
    <circle cx="16" cy="28" r="6"/><circle cx="40" cy="46" r="5"/><circle cx="76" cy="34" r="7"/>
    <circle cx="101" cy="18" r="5"/><circle cx="114" cy="52" r="6"/><circle cx="59" cy="20" r="4"/>
  </g>
</svg>
