<svg xmlns="http://www.w3.org/2000/svg" width="128" height="128" viewBox="0 0 128 128">
  <g fill="#4c7f32" opacity="0.95">
    <circle cx="18" cy="18" r="14"/><circle cx="42" cy="26" r="16"/><circle cx="72" cy="18" r="15"/><circle cx="104" cy="22" r="15"/>
    <circle cx="24" cy="52" r="15"/><circle cx="58" cy="50" r="18"/><circle cx="90" cy="54" r="17"/><circle cx="112" cy="48" r="14"/>
    <circle cx="18" cy="90" r="14"/><circle cx="48" cy="86" r="17"/><circle cx="80" cy="92" r="16"/><circle cx="108" cy="90" r="14"/>
  </g>
  <g fill="#6ea54d" opacity="0.58">
    <circle cx="30" cy="16" r="7"/><circle cx="64" cy="36" r="6"/><circle cx="98" cy="16" r="7"/>
    <circle cx="38" cy="68" r="7"/><circle cx="92" cy="74" r="8"/><circle cx="58" cy="102" r="7"/>
  </g>
  <g fill="#27451d" opacity="0.35">
    <circle cx="14" cy="34" r="5"/><circle cx="84" cy="44" r="6"/><circle cx="108" cy="72" r="5"/><circle cx="54" cy="82" r="6"/>
  </g>
</svg>
