<svg xmlns="http://www.w3.org/2000/svg" width="128" height="128" viewBox="0 0 128 128">
  <rect width="128" height="128" fill="#e8d894"/>
  <g stroke="#f4e7b3" stroke-width="3" opacity="0.45">
    <path d="M0 18c24 12 39 12 64 0 24-12 41-12 64 0"/>
    <path d="M0 44c24 12 39 12 64 0 24-12 41-12 64 0"/>
    <path d="M0 70c24 12 39 12 64 0 24-12 41-12 64 0"/>
    <path d="M0 96c24 12 39 12 64 0 24-12 41-12 64 0"/>
  </g>
  <g fill="#d6c27a" opacity="0.7">
    <circle cx="18" cy="28" r="4"/><circle cx="48" cy="16" r="3"/><circle cx="84" cy="20" r="5"/>
    <circle cx="116" cy="30" r="4"/><circle cx="22" cy="64" r="5"/><circle cx="66" cy="56" r="3"/>
    <circle cx="102" cy="62" r="4"/><circle cx="36" cy="108" r="4"/><circle cx="76" cy="104" r="3"/>
    <circle cx="112" cy="96" r="5"/>
  </g>
</svg>
