<svg xmlns="http://www.w3.org/2000/svg" width="128" height="128" viewBox="0 0 128 128">
  <rect width="128" height="128" fill="#727272"/>
  <g fill="#8d8d8d">
    <polygon points="6,18 28,6 42,21 30,42 8,39"/>
    <polygon points="50,10 80,8 88,28 62,42 46,28"/>
    <polygon points="96,6 122,18 118,40 92,44 82,22"/>
    <polygon points="14,58 38,50 54,70 36,90 10,82"/>
    <polygon points="62,50 88,48 102,70 84,92 58,80"/>
    <polygon points="102,56 124,62 120,90 96,88 90,68"/>
    <polygon points="20,98 42,94 56,116 34,124 10,114"/>
    <polygon points="66,98 92,96 104,118 78,126 58,114"/>
  </g>
  <g stroke="#4b4b4b" stroke-width="3" opacity="0.65">
    <path d="M0 44 128 30"/><path d="M8 86 128 74"/><path d="M24 126 86 0"/><path d="M84 128 126 24"/>
  </g>
</svg>
